{"title":"Formula 1 2013 Chinese Grand Prix - Qualifying BBC","uid":8369007,"size":1500364296,"categoryP":"video","categoryS":"tv_shows","magnet":"?xt=urn:btih:a9d97903997ad688104e42226ba0f9c959d60f94&amp;dn=Formula+1+2013+Chinese+Grand+Prix+-+Qualifying+BBC&amp;tr=udp%3A%2F%2Ftracker.openbittorrent.com%3A80&amp;tr=udp%3A%2F%2Fopen.demonii.com%3A1337&amp;tr=udp%3A%2F%2Ftracker.coppersurfer.tk%3A6969&amp;tr=udp%3A%2F%2Fexodus.desync.com%3A6969","seeders":1,"leechers":0,"uploader":"IAMH67","files":5,"time":1365813918,"description":"F1: Grand Prix Qualifying\n \nOn: BBC 1    \n \nDate: Saturday 13th April 2013 (Already shown)\n \nTime: 06:00 to 08:30 (2 hours and 30 minutes long)\n\nCredit :- Hannibal\n\nThe 22 drivers head into battle. David Coulthard and Eddie Jordan offer their expert insight in Shanghai with presenter Suzi Perry.\n\nFull coverage, Build up and Q1,2,3 + post qualifying.\n\nTechnical Information : \n\nVideo\nID                             : 0\nFormat                         : MPEG-4 Visual\nCodec ID                       : XVID\nCodec ID/Hint                  : XviD\nDuration                       : 2h 29mn\nSource duration                : 1h 28mn\nBit rate                       : 112 Mbps\nWidth                          : 608 pixels\nHeight                         : 336 pixels\nDisplay aspect ratio           : 16:9\nFrame rate                     : 25.000 fps\nColor space                    : YUV\nChroma subsampling             : 4:2:0\nCompression mode               : Lossy\nBits/(Pixel*Frame)             : 21.945\nStream size                    : 69.0 GiB\n\nAudio\nID                             : 1\nFormat                         : MPEG Audio\nCodec ID                       : 55\nCodec ID/Hint                  : MP3\nDuration                       : 2h 29mn\nBit rate                       : 128 Kbps\nChannel(s)                     : 2 channels\nSampling rate                  : 48.0 KHz\nCompression mode               : Lossy\nStream size                    : 96.5 GiB\nAlignment                      : Aligned on interleaves\nInterleave, duration           : 40 ms (1.00 video frame)\nInterleave, preload duration   : 504 ms\n\nScreens :\n &lt;a href=&quot;\nhttp://i.imgur.com/B72DGME.jpg&quot; rel=&quot;nofollow&quot; target=&quot;_NEW&quot;&gt;\nhttp://i.imgur.com/B72DGME.jpg&lt;/a&gt;\n &lt;a href=&quot;\nhttp://i.imgur.com/p7eQRRt.jpg&quot; rel=&quot;nofollow&quot; target=&quot;_NEW&quot;&gt;\nhttp://i.imgur.com/p7eQRRt.jpg&lt;/a&gt;\n &lt;a href=&quot;\nhttp://i.imgur.com/tg2IG8R.jpg&quot; rel=&quot;nofollow&quot; target=&quot;_NEW&quot;&gt;\nhttp://i.imgur.com/tg2IG8R.jpg&lt;/a&gt;\n\n","torrent":{"xt":"urn:btih:a9d97903997ad688104e42226ba0f9c959d60f94","amp;dn":"Formula+1+2013+Chinese+Grand+Prix+-+Qualifying+BBC","amp;tr":["udp%3A%2F%2Ftracker.openbittorrent.com%3A80","udp%3A%2F%2Fopen.demonii.com%3A1337","udp%3A%2F%2Ftracker.coppersurfer.tk%3A6969","udp%3A%2F%2Fexodus.desync.com%3A6969"],"infoHash":"a9d97903997ad688104e42226ba0f9c959d60f94","infoHashBuffer":{"type":"Buffer","data":[169,217,121,3,153,122,214,136,16,78,66,34,107,160,249,201,89,214,15,148]},"announce":[],"urlList":[]}}